<svg xmlns="http://www.w3.org/2000/svg" width="48" height="48" viewBox="0 0 48 48"><title>newimages-page</title><path d="M24,13.49l2.75,6.74.42,1,1.1.08,7.25.53L30,26.56l-.84.71.26,1.07,1.74,7.07-6.18-3.84L24,31l-.94.58-6.18,3.84,1.74-7.07.26-1.07L18,26.56l-5.56-4.7,7.25-.53,1.1-.08.42-1L24,13.49m0-4.71L19.61,19.56,8,20.41l8.89,7.51-2.78,11.3L24,33.08l9.89,6.14-2.78-11.3L40,20.41l-11.61-.85L24,8.78ZM14.9,28.56l-1.22-1L11,29.78l3.53.26Zm14.73-10.7,1.55.12L32,14.51l-3,1.87Zm-11.25,0,.6-1.48-3-1.87L16.82,18ZM33.1,28.56,33.46,30,37,29.78l-2.67-2.25ZM24,35.17,22.68,36,24,39.22,25.32,36Z" fill="#ddd"/></svg>