<svg xmlns="http://www.w3.org/2000/svg" width="48" height="48" viewBox="0 0 48 48"><title>about-page</title><path d="M33.71,32.46a6.05,6.05,0,0,1-4.18-4.29,23.6,23.6,0,0,0,2.28-4.76c1.49-.53,2.64-2,3.15-4.16a3.26,3.26,0,0,0-1.72-4c.24-2.83-.35-5.09-1.77-6.72-2-2.31-5.17-2.8-7.47-2.8s-5.47.49-7.47,2.8c-1.42,1.63-2,3.89-1.77,6.72a3.26,3.26,0,0,0-1.72,4c.51,2.13,1.66,3.63,3.15,4.16a23.6,23.6,0,0,0,2.28,4.76,6.05,6.05,0,0,1-4.18,4.29C11,33.69,8,35.28,8,38.66v.79l.73.28A43.62,43.62,0,0,0,24,42.29a43.62,43.62,0,0,0,15.27-2.56l.73-.28v-.79C40,35.28,37,33.69,33.71,32.46Zm-15.78-11-.71-.1c-1-.14-1.69-1.49-1.95-2.59s0-1.37,1-1.62l1-.25-.15-1c-.37-2.59,0-4.55,1.13-5.83C19.69,8.35,22.17,8,24,8s4.31.35,5.74,2c1.12,1.28,1.5,3.24,1.13,5.83l-.15,1,1,.25c1,.25,1.25.62,1,1.61s-.93,2.46-1.95,2.6l-.71.1-.22.67c-1.23,3.69-3.41,7.62-5.85,7.62s-4.62-3.93-5.85-7.62ZM10.39,37.9c.32-1.06,1.47-2.09,4.7-3.3a8.39,8.39,0,0,0,5-4.37A5.6,5.6,0,0,0,24,32a5.6,5.6,0,0,0,3.89-1.77,8.39,8.39,0,0,0,5,4.37c3.23,1.21,4.38,2.24,4.7,3.3C29.85,40.61,18.15,40.61,10.39,37.9Z" fill="#333"/></svg>