<svg xmlns="http://www.w3.org/2000/svg" width="48" height="48" viewBox="0 0 48 48"><title>calendar-page</title><path d="M30,34H28V25.37a6.1,6.1,0,0,1-2.4.39h-.3V24h.3c1.61,0,2.51-.59,2.74-1.8l0-.24H30Zm-10,.1a4.11,4.11,0,0,1-2.77-.94A3.42,3.42,0,0,1,16,30.66l0-.31h2.1v.3a1.7,1.7,0,0,0,.48,1.22,1.77,1.77,0,0,0,1.38.5,1.81,1.81,0,0,0,1.4-.55,2.1,2.1,0,0,0,.52-1.49,1.8,1.8,0,0,0-.53-1.41,2.38,2.38,0,0,0-1.62-.49h-.84V26.72h.62c1.23,0,1.8-.52,1.8-1.64a1.29,1.29,0,0,0-1.46-1.45,1.47,1.47,0,0,0-1.62,1.52l0,.26H16.15l0-.33a3.39,3.39,0,0,1,1.2-2.36,3.82,3.82,0,0,1,2.46-.82,3.65,3.65,0,0,1,2.59.9,3,3,0,0,1,1,2.31A2.85,2.85,0,0,1,23,26.63a2.48,2.48,0,0,1-.72.76,3,3,0,0,1,1.11.93,3.35,3.35,0,0,1,.61,2,3.58,3.58,0,0,1-1.16,2.75A4.08,4.08,0,0,1,20,34.1ZM34,10V8H28v2H20V8H14v2H8V40H40V10Zm4,28H10V18H38Zm0-22H10V12h4v2h6V12h8v2h6V12h4ZM18,12H16V10h2Zm14,0H30V10h2Z" fill="#333"/></svg>